<mxfile host="app.diagrams.net" agent="Mozilla/5.0 (Windows NT 10.0; Win64; x64) AppleWebKit/537.36 (KHTML, like Gecko) Chrome/131.0.0.0 Safari/537.36" version="25.0.1">
  <diagram name="Page-1" id="2YBvvXClWsGukQMizWep">
    <mxGraphModel dx="1674" dy="772" grid="1" gridSize="10" guides="1" tooltips="1" connect="1" arrows="1" fold="1" page="1" pageScale="1" pageWidth="850" pageHeight="1100" math="0" shadow="0">
      <root>
        <mxCell id="0" />
        <mxCell id="1" parent="0" />
        <mxCell id="FtY7_aBKMn-pzWpfySM--25" value="Vendor" style="shape=umlLifeline;perimeter=lifelinePerimeter;whiteSpace=wrap;container=1;dropTarget=0;collapsible=0;recursiveResize=0;outlineConnect=0;portConstraint=eastwest;newEdgeStyle={&quot;edgeStyle&quot;:&quot;elbowEdgeStyle&quot;,&quot;elbow&quot;:&quot;vertical&quot;,&quot;curved&quot;:0,&quot;rounded&quot;:0};size=65;" vertex="1" parent="1">
          <mxGeometry x="20" y="20" width="150" height="1044" as="geometry" />
        </mxCell>
        <mxCell id="FtY7_aBKMn-pzWpfySM--26" value="TicketPool" style="shape=umlLifeline;perimeter=lifelinePerimeter;whiteSpace=wrap;container=1;dropTarget=0;collapsible=0;recursiveResize=0;outlineConnect=0;portConstraint=eastwest;newEdgeStyle={&quot;edgeStyle&quot;:&quot;elbowEdgeStyle&quot;,&quot;elbow&quot;:&quot;vertical&quot;,&quot;curved&quot;:0,&quot;rounded&quot;:0};size=65;" vertex="1" parent="1">
          <mxGeometry x="289" y="20" width="150" height="1044" as="geometry" />
        </mxCell>
        <mxCell id="FtY7_aBKMn-pzWpfySM--27" value="LogFile" style="shape=umlLifeline;perimeter=lifelinePerimeter;whiteSpace=wrap;container=1;dropTarget=0;collapsible=0;recursiveResize=0;outlineConnect=0;portConstraint=eastwest;newEdgeStyle={&quot;edgeStyle&quot;:&quot;elbowEdgeStyle&quot;,&quot;elbow&quot;:&quot;vertical&quot;,&quot;curved&quot;:0,&quot;rounded&quot;:0};size=65;" vertex="1" parent="1">
          <mxGeometry x="630" y="20" width="150" height="1044" as="geometry" />
        </mxCell>
        <mxCell id="FtY7_aBKMn-pzWpfySM--28" value="Customer" style="shape=umlLifeline;perimeter=lifelinePerimeter;whiteSpace=wrap;container=1;dropTarget=0;collapsible=0;recursiveResize=0;outlineConnect=0;portConstraint=eastwest;newEdgeStyle={&quot;edgeStyle&quot;:&quot;elbowEdgeStyle&quot;,&quot;elbow&quot;:&quot;vertical&quot;,&quot;curved&quot;:0,&quot;rounded&quot;:0};size=65;" vertex="1" parent="1">
          <mxGeometry x="830" y="20" width="150" height="1044" as="geometry" />
        </mxCell>
        <mxCell id="FtY7_aBKMn-pzWpfySM--29" value="alt" style="shape=umlFrame;dashed=1;pointerEvents=0;dropTarget=0;strokeColor=#B3B3B3;height=20;width=30" vertex="1" parent="1">
          <mxGeometry x="84" y="147" width="632" height="352" as="geometry" />
        </mxCell>
        <mxCell id="FtY7_aBKMn-pzWpfySM--30" value="[if max capacity not reached]" style="text;strokeColor=none;fillColor=none;align=center;verticalAlign=middle;whiteSpace=wrap;" vertex="1" parent="FtY7_aBKMn-pzWpfySM--29">
          <mxGeometry x="30" width="602" height="20" as="geometry" />
        </mxCell>
        <mxCell id="FtY7_aBKMn-pzWpfySM--31" value="[if max capacity reached]" style="shape=line;dashed=1;whiteSpace=wrap;verticalAlign=top;labelPosition=center;verticalLabelPosition=middle;align=center;strokeColor=#B3B3B3;" vertex="1" parent="FtY7_aBKMn-pzWpfySM--29">
          <mxGeometry y="207" width="632" height="4" as="geometry" />
        </mxCell>
        <mxCell id="FtY7_aBKMn-pzWpfySM--32" value="alt" style="shape=umlFrame;dashed=1;pointerEvents=0;dropTarget=0;strokeColor=#B3B3B3;height=20;width=30" vertex="1" parent="1">
          <mxGeometry x="84" y="607" width="836" height="352" as="geometry" />
        </mxCell>
        <mxCell id="FtY7_aBKMn-pzWpfySM--33" value="[If tickets are available]" style="text;strokeColor=none;fillColor=none;align=center;verticalAlign=middle;whiteSpace=wrap;" vertex="1" parent="FtY7_aBKMn-pzWpfySM--32">
          <mxGeometry x="30" width="806" height="20" as="geometry" />
        </mxCell>
        <mxCell id="FtY7_aBKMn-pzWpfySM--34" value="[If no tickets available]" style="shape=line;dashed=1;whiteSpace=wrap;verticalAlign=top;labelPosition=center;verticalLabelPosition=middle;align=center;strokeColor=#B3B3B3;" vertex="1" parent="FtY7_aBKMn-pzWpfySM--32">
          <mxGeometry y="155" width="836" height="4" as="geometry" />
        </mxCell>
        <mxCell id="FtY7_aBKMn-pzWpfySM--35" value="loop" style="shape=umlFrame;dashed=1;pointerEvents=0;dropTarget=0;strokeColor=#B3B3B3;height=20;width=40" vertex="1" parent="1">
          <mxGeometry x="74" y="509" width="856" height="460" as="geometry" />
        </mxCell>
        <mxCell id="FtY7_aBKMn-pzWpfySM--36" value="[While system is running]" style="text;strokeColor=none;fillColor=none;align=center;verticalAlign=middle;whiteSpace=wrap;" vertex="1" parent="FtY7_aBKMn-pzWpfySM--35">
          <mxGeometry x="40" width="816" height="20" as="geometry" />
        </mxCell>
        <mxCell id="FtY7_aBKMn-pzWpfySM--37" value="check capacity" style="verticalAlign=bottom;edgeStyle=elbowEdgeStyle;elbow=vertical;curved=0;rounded=0;endArrow=block;" edge="1" parent="1" source="FtY7_aBKMn-pzWpfySM--25" target="FtY7_aBKMn-pzWpfySM--26">
          <mxGeometry relative="1" as="geometry">
            <Array as="points">
              <mxPoint x="236" y="127" />
            </Array>
          </mxGeometry>
        </mxCell>
        <mxCell id="FtY7_aBKMn-pzWpfySM--38" value="addTicket(vendorId, tickets)" style="verticalAlign=bottom;edgeStyle=elbowEdgeStyle;elbow=vertical;curved=0;rounded=0;dashed=1;dashPattern=2 3;endArrow=block;" edge="1" parent="1" source="FtY7_aBKMn-pzWpfySM--25" target="FtY7_aBKMn-pzWpfySM--26">
          <mxGeometry relative="1" as="geometry">
            <Array as="points">
              <mxPoint x="236" y="225" />
            </Array>
          </mxGeometry>
        </mxCell>
        <mxCell id="FtY7_aBKMn-pzWpfySM--39" value="log &quot;Vendor No. X added tickets&quot;" style="verticalAlign=bottom;edgeStyle=elbowEdgeStyle;elbow=vertical;curved=0;rounded=0;dashed=1;dashPattern=2 3;endArrow=block;" edge="1" parent="1" source="FtY7_aBKMn-pzWpfySM--26" target="FtY7_aBKMn-pzWpfySM--27">
          <mxGeometry relative="1" as="geometry">
            <Array as="points">
              <mxPoint x="546" y="277" />
            </Array>
          </mxGeometry>
        </mxCell>
        <mxCell id="FtY7_aBKMn-pzWpfySM--40" value="Confirm tickets added" style="verticalAlign=bottom;edgeStyle=elbowEdgeStyle;elbow=vertical;curved=0;rounded=0;dashed=1;dashPattern=2 3;endArrow=block;" edge="1" parent="1" source="FtY7_aBKMn-pzWpfySM--26" target="FtY7_aBKMn-pzWpfySM--25">
          <mxGeometry relative="1" as="geometry">
            <Array as="points">
              <mxPoint x="239" y="329" />
            </Array>
          </mxGeometry>
        </mxCell>
        <mxCell id="FtY7_aBKMn-pzWpfySM--41" value="Wait (max capacity reached)" style="verticalAlign=bottom;edgeStyle=elbowEdgeStyle;elbow=vertical;curved=0;rounded=0;dashed=1;dashPattern=2 3;endArrow=block;" edge="1" parent="1" source="FtY7_aBKMn-pzWpfySM--26" target="FtY7_aBKMn-pzWpfySM--25">
          <mxGeometry relative="1" as="geometry">
            <Array as="points">
              <mxPoint x="239" y="427" />
            </Array>
          </mxGeometry>
        </mxCell>
        <mxCell id="FtY7_aBKMn-pzWpfySM--42" value="retry addTicket after waiting" style="verticalAlign=bottom;edgeStyle=elbowEdgeStyle;elbow=vertical;curved=0;rounded=0;dashed=1;dashPattern=2 3;endArrow=block;" edge="1" parent="1" source="FtY7_aBKMn-pzWpfySM--25" target="FtY7_aBKMn-pzWpfySM--26">
          <mxGeometry relative="1" as="geometry">
            <Array as="points">
              <mxPoint x="236" y="479" />
            </Array>
          </mxGeometry>
        </mxCell>
        <mxCell id="FtY7_aBKMn-pzWpfySM--43" value="removeTicket(customerId)" style="verticalAlign=bottom;edgeStyle=elbowEdgeStyle;elbow=vertical;curved=0;rounded=0;endArrow=block;" edge="1" parent="1" source="FtY7_aBKMn-pzWpfySM--28" target="FtY7_aBKMn-pzWpfySM--26">
          <mxGeometry relative="1" as="geometry">
            <Array as="points">
              <mxPoint x="651" y="587" />
            </Array>
          </mxGeometry>
        </mxCell>
        <mxCell id="FtY7_aBKMn-pzWpfySM--44" value="ticket retrieved" style="verticalAlign=bottom;edgeStyle=elbowEdgeStyle;elbow=vertical;curved=0;rounded=0;dashed=1;dashPattern=2 3;endArrow=block;" edge="1" parent="1" source="FtY7_aBKMn-pzWpfySM--26" target="FtY7_aBKMn-pzWpfySM--28">
          <mxGeometry relative="1" as="geometry">
            <Array as="points">
              <mxPoint x="648" y="685" />
            </Array>
          </mxGeometry>
        </mxCell>
        <mxCell id="FtY7_aBKMn-pzWpfySM--45" value="log &quot;Customer No. X purchased ticket&quot;" style="verticalAlign=bottom;edgeStyle=elbowEdgeStyle;elbow=vertical;curved=0;rounded=0;dashed=1;dashPattern=2 3;endArrow=block;" edge="1" parent="1" source="FtY7_aBKMn-pzWpfySM--26" target="FtY7_aBKMn-pzWpfySM--27">
          <mxGeometry relative="1" as="geometry">
            <Array as="points">
              <mxPoint x="548" y="737" />
            </Array>
          </mxGeometry>
        </mxCell>
        <mxCell id="FtY7_aBKMn-pzWpfySM--46" value="No tickets available, waiting" style="verticalAlign=bottom;edgeStyle=elbowEdgeStyle;elbow=vertical;curved=0;rounded=0;dashed=1;dashPattern=2 3;endArrow=block;" edge="1" parent="1" source="FtY7_aBKMn-pzWpfySM--26" target="FtY7_aBKMn-pzWpfySM--28">
          <mxGeometry relative="1" as="geometry">
            <Array as="points">
              <mxPoint x="648" y="835" />
            </Array>
          </mxGeometry>
        </mxCell>
        <mxCell id="FtY7_aBKMn-pzWpfySM--47" value="notify to add more tickets" style="verticalAlign=bottom;edgeStyle=elbowEdgeStyle;elbow=vertical;curved=0;rounded=0;dashed=1;dashPattern=2 3;endArrow=block;" edge="1" parent="1" source="FtY7_aBKMn-pzWpfySM--26" target="FtY7_aBKMn-pzWpfySM--25">
          <mxGeometry relative="1" as="geometry">
            <Array as="points">
              <mxPoint x="239" y="887" />
            </Array>
          </mxGeometry>
        </mxCell>
        <mxCell id="FtY7_aBKMn-pzWpfySM--48" value="retry removeTicket after waiting" style="verticalAlign=bottom;edgeStyle=elbowEdgeStyle;elbow=vertical;curved=0;rounded=0;dashed=1;dashPattern=2 3;endArrow=block;" edge="1" parent="1" source="FtY7_aBKMn-pzWpfySM--28" target="FtY7_aBKMn-pzWpfySM--26">
          <mxGeometry relative="1" as="geometry">
            <Array as="points">
              <mxPoint x="651" y="939" />
            </Array>
          </mxGeometry>
        </mxCell>
        <mxCell id="FtY7_aBKMn-pzWpfySM--51" value="Vendor" style="rounded=0;whiteSpace=wrap;html=1;" vertex="1" parent="1">
          <mxGeometry x="20" y="1064" width="150" height="60" as="geometry" />
        </mxCell>
        <mxCell id="FtY7_aBKMn-pzWpfySM--52" value="TicketPool" style="rounded=0;whiteSpace=wrap;html=1;" vertex="1" parent="1">
          <mxGeometry x="290" y="1064" width="150" height="60" as="geometry" />
        </mxCell>
        <mxCell id="FtY7_aBKMn-pzWpfySM--54" value="LogFile" style="rounded=0;whiteSpace=wrap;html=1;" vertex="1" parent="1">
          <mxGeometry x="630" y="1064" width="150" height="60" as="geometry" />
        </mxCell>
        <mxCell id="FtY7_aBKMn-pzWpfySM--55" value="Customer" style="rounded=0;whiteSpace=wrap;html=1;" vertex="1" parent="1">
          <mxGeometry x="830" y="1064" width="150" height="64" as="geometry" />
        </mxCell>
      </root>
    </mxGraphModel>
  </diagram>
</mxfile>
